<mxfile host="app.diagrams.net" agent="Mozilla/5.0 (Macintosh; Intel Mac OS X 10_15_7) AppleWebKit/605.1.15 (KHTML, like Gecko) Version/18.1.1 Safari/605.1.15" version="25.0.3">
  <diagram name="Auth Use Cases" id="j4PoPlTL41rEnhjDZyxq">
    <mxGraphModel dx="731" dy="521" grid="1" gridSize="10" guides="1" tooltips="1" connect="1" arrows="1" fold="1" page="1" pageScale="1" pageWidth="850" pageHeight="1100" math="0" shadow="0">
      <root>
        <mxCell id="0" />
        <mxCell id="1" parent="0" />
        <mxCell id="ELmv1lRLfs2C5lO6UADp-2" value="User" style="shape=umlActor;verticalLabelPosition=bottom;verticalAlign=top;" vertex="1" parent="1">
          <mxGeometry x="40" y="200" width="30" height="60" as="geometry" />
        </mxCell>
        <mxCell id="ELmv1lRLfs2C5lO6UADp-3" value="Login" style="ellipse;whiteSpace=wrap;html=1;aspect=fixed;" vertex="1" parent="1">
          <mxGeometry x="250" y="100" width="120" height="60" as="geometry" />
        </mxCell>
        <mxCell id="ELmv1lRLfs2C5lO6UADp-4" value="Signup" style="ellipse;whiteSpace=wrap;html=1;aspect=fixed;" vertex="1" parent="1">
          <mxGeometry x="250" y="200" width="120" height="60" as="geometry" />
        </mxCell>
        <mxCell id="ELmv1lRLfs2C5lO6UADp-5" value="Logout" style="ellipse;whiteSpace=wrap;html=1;aspect=fixed;" vertex="1" parent="1">
          <mxGeometry x="250" y="300" width="120" height="60" as="geometry" />
        </mxCell>
        <mxCell id="ELmv1lRLfs2C5lO6UADp-6" value="AuthBloc" style="rounded=1;whiteSpace=wrap;html=1;" vertex="1" parent="1">
          <mxGeometry x="540" y="220" width="100" height="40" as="geometry" />
        </mxCell>
        <mxCell id="ELmv1lRLfs2C5lO6UADp-7" edge="1" parent="1" source="ELmv1lRLfs2C5lO6UADp-2" target="ELmv1lRLfs2C5lO6UADp-3">
          <mxGeometry relative="1" as="geometry" />
        </mxCell>
        <mxCell id="ELmv1lRLfs2C5lO6UADp-8" edge="1" parent="1" source="ELmv1lRLfs2C5lO6UADp-2" target="ELmv1lRLfs2C5lO6UADp-4">
          <mxGeometry relative="1" as="geometry" />
        </mxCell>
        <mxCell id="ELmv1lRLfs2C5lO6UADp-9" edge="1" parent="1" source="ELmv1lRLfs2C5lO6UADp-2" target="ELmv1lRLfs2C5lO6UADp-5">
          <mxGeometry relative="1" as="geometry" />
        </mxCell>
        <mxCell id="ELmv1lRLfs2C5lO6UADp-10" edge="1" parent="1" source="ELmv1lRLfs2C5lO6UADp-3" target="ELmv1lRLfs2C5lO6UADp-6">
          <mxGeometry relative="1" as="geometry" />
        </mxCell>
        <mxCell id="ELmv1lRLfs2C5lO6UADp-11" edge="1" parent="1" source="ELmv1lRLfs2C5lO6UADp-4" target="ELmv1lRLfs2C5lO6UADp-6">
          <mxGeometry relative="1" as="geometry" />
        </mxCell>
        <mxCell id="ELmv1lRLfs2C5lO6UADp-12" edge="1" parent="1" source="ELmv1lRLfs2C5lO6UADp-5" target="ELmv1lRLfs2C5lO6UADp-6">
          <mxGeometry relative="1" as="geometry" />
        </mxCell>
      </root>
    </mxGraphModel>
  </diagram>
</mxfile>
